<!-- Exported by Character Map UWP -->
<svg height="100%" viewBox="64 64 896 896" width="100%" xmlns="http://www.w3.org/2000/svg" xmlns:xlink="http://www.w3.org/1999/xlink">
  <path d="M448,544C448,535.333 451.167,527.833 457.5,521.5L851,128L544,128C535.333,128 527.833,124.833 521.5,118.5C515.167,112.167 512,104.667 512,96C512,87.3334 515.167,79.8334 521.5,73.5C527.833,67.1667 535.333,64.0001 544,64L928,64C936.667,64.0001 944.167,67.1667 950.5,73.5C956.833,79.8334 960,87.3334 960,96L960,480C960,488.667 956.833,496.167 950.5,502.5C944.167,508.833 936.667,512 928,512C919.333,512 911.833,508.833 905.5,502.5C899.167,496.167 896,488.667 896,480L896,173.5L502.5,566.5C499.167,569.5 495.75,571.833 492.25,573.5C488.75,575.167 484.667,576 480,576C471.333,576 463.833,572.833 457.5,566.5C451.167,560.167 448,552.667 448,544ZM220.5,960C199.5,960 179.5,955.75 160.5,947.25C141.5,938.75 124.917,927.417 110.75,913.25C96.5833,899.083 85.25,882.5 76.75,863.5C68.25,844.5 64,824.5 64,803.5L64,284.5C64,263.5 68.25,243.5 76.75,224.5C85.25,205.5 96.5833,188.917 110.75,174.75C124.917,160.583 141.5,149.25 160.5,140.75C179.5,132.25 199.5,128 220.5,128L416,128C424.667,128 432.167,131.167 438.5,137.5C444.833,143.833 448,151.333 448,160C448,168.667 444.833,176.167 438.5,182.5C432.167,188.833 424.667,192 416,192L224,192C211,192 198.667,194.5 187,199.5C175.333,204.5 165.083,211.417 156.25,220.25C147.417,229.083 140.5,239.333 135.5,251C130.5,262.667 128,275 128,288L128,800C128,813 130.5,825.333 135.5,837C140.5,848.667 147.417,858.917 156.25,867.75C165.083,876.583 175.333,883.5 187,888.5C198.667,893.5 211,896 224,896L736,896C749,896 761.333,893.5 773,888.5C784.667,883.5 794.917,876.583 803.75,867.75C812.583,858.917 819.5,848.667 824.5,837C829.5,825.333 832,813 832,800L832,608C832,599.333 835.167,591.833 841.5,585.5C847.833,579.167 855.333,576 864,576C872.667,576 880.167,579.167 886.5,585.5C892.833,591.833 896,599.333 896,608L896,803.5C896,824.5 891.75,844.5 883.25,863.5C874.75,882.5 863.417,899.083 849.25,913.25C835.083,927.417 818.5,938.75 799.5,947.25C780.5,955.75 760.5,960 739.5,960Z" fill="#FFFFFF" fill-opacity="1">
  </path>
</svg>