<!-- Exported by Character Map UWP -->
<svg height="100%" viewBox="192 128 640 768" width="100%" xmlns="http://www.w3.org/2000/svg" xmlns:xlink="http://www.w3.org/1999/xlink">
  <path d="M192,864L192,160C192,151.333 195.167,143.833 201.5,137.5C207.833,131.167 215.333,128 224,128C232.667,128 240.167,131.167 246.5,137.5C252.833,143.833 256,151.333 256,160L256,864C256,872.667 252.833,880.167 246.5,886.5C240.167,892.833 232.667,896 224,896C215.333,896 207.833,892.833 201.5,886.5C195.167,880.167 192,872.667 192,864ZM416,512C416,503.333 419.167,495.833 425.5,489.5L777.5,137.5C783.833,131.167 791.333,128 800,128C808.667,128 816.167,131.167 822.5,137.5C828.833,143.833 832,151.333 832,160C832,168.667 828.833,176.167 822.5,182.5L493.5,512L822.5,841.5C828.833,847.833 832,855.333 832,864C832,872.667 828.833,880.167 822.5,886.5C816.167,892.833 808.667,896 800,896C791.333,896 783.833,892.833 777.5,886.5L425.5,534.5C419.167,528.167 416,520.667 416,512Z" fill="#0071d4" fill-opacity="1">
  </path>
</svg>