<!-- Exported by Character Map UWP -->
<svg height="100%" viewBox="64 48 864 896" width="100%" xmlns="http://www.w3.org/2000/svg" xmlns:xlink="http://www.w3.org/1999/xlink">
  <path d="M512,48C523,48 533.333,50.0834 543,54.25C552.667,58.4167 561.167,64.1667 568.5,71.5C575.833,78.8334 581.583,87.3334 585.75,97C589.917,106.667 592,117 592,128C592,139 589.917,149.333 585.75,159C581.583,168.667 575.833,177.167 568.5,184.5C561.167,191.833 552.667,197.583 543,201.75C533.333,205.917 523,208 512,208C501,208 490.667,205.917 481,201.75C471.333,197.583 462.833,191.833 455.5,184.5C448.167,177.167 442.417,168.667 438.25,159C434.083,149.333 432,139 432,128C432,117 434.083,106.667 438.25,97C442.417,87.3334 448.167,78.8334 455.5,71.5C462.833,64.1667 471.333,58.4167 481,54.25C490.667,50.0834 501,48 512,48ZM168.5,240.5C168.5,230.5 170.333,221.167 174,212.5C177.667,203.833 182.75,196.25 189.25,189.75C195.75,183.25 203.417,178.083 212.25,174.25C221.083,170.417 230.5,168.5 240.5,168.5C250.5,168.5 259.833,170.417 268.5,174.25C277.167,178.083 284.75,183.25 291.25,189.75C297.75,196.25 302.917,203.833 306.75,212.5C310.583,221.167 312.5,230.5 312.5,240.5C312.5,250.5 310.583,259.917 306.75,268.75C302.917,277.583 297.75,285.25 291.25,291.75C284.75,298.25 277.167,303.333 268.5,307C259.833,310.667 250.5,312.5 240.5,312.5C230.5,312.5 221.083,310.667 212.25,307C203.417,303.333 195.75,298.25 189.25,291.75C182.75,285.25 177.667,277.583 174,268.75C170.333,259.917 168.5,250.5 168.5,240.5ZM128,448C137,448 145.333,449.667 153,453C160.667,456.333 167.417,460.917 173.25,466.75C179.083,472.583 183.667,479.333 187,487C190.333,494.667 192,503 192,512C192,521 190.333,529.333 187,537C183.667,544.667 179.083,551.417 173.25,557.25C167.417,563.083 160.667,567.667 153,571C145.333,574.333 137,576 128,576C119,576 110.667,574.333 103,571C95.3333,567.667 88.5833,563.083 82.75,557.25C76.9167,551.417 72.3333,544.667 69,537C65.6667,529.333 64,521 64,512C64,503 65.6667,494.667 69,487C72.3333,479.333 76.9167,472.583 82.75,466.75C88.5833,460.917 95.3333,456.333 103,453C110.667,449.667 119,448 128,448ZM184.5,783.5C184.5,775.833 186,768.583 189,761.75C192,754.917 196,749 201,744C206,739 211.917,735 218.75,732C225.583,729 232.833,727.5 240.5,727.5C248.167,727.5 255.417,729 262.25,732C269.083,735 275,739 280,744C285,749 289,754.917 292,761.75C295,768.583 296.5,775.833 296.5,783.5C296.5,791.167 295,798.417 292,805.25C289,812.083 285,818 280,823C275,828 269.083,832 262.25,835C255.417,838 248.167,839.5 240.5,839.5C232.833,839.5 225.583,838 218.75,835C211.917,832 206,828 201,823C196,818 192,812.083 189,805.25C186,798.417 184.5,791.167 184.5,783.5ZM512,848C525.333,848 536.667,852.667 546,862C555.333,871.333 560,882.667 560,896C560,909.333 555.333,920.667 546,930C536.667,939.333 525.333,944 512,944C498.667,944 487.333,939.333 478,930C468.667,920.667 464,909.333 464,896C464,882.667 468.667,871.333 478,862C487.333,852.667 498.667,848 512,848ZM743.5,783.5C743.5,772.167 747.333,762.667 755,755C762.667,747.333 772.167,743.5 783.5,743.5C794.833,743.5 804.333,747.333 812,755C819.667,762.667 823.5,772.167 823.5,783.5C823.5,794.833 819.667,804.333 812,812C804.333,819.667 794.833,823.5 783.5,823.5C772.167,823.5 762.667,819.667 755,812C747.333,804.333 743.5,794.833 743.5,783.5ZM896,480C904.667,480 912.167,483.167 918.5,489.5C924.833,495.833 928,503.333 928,512C928,520.667 924.833,528.167 918.5,534.5C912.167,540.833 904.667,544 896,544C887.333,544 879.833,540.833 873.5,534.5C867.167,528.167 864,520.667 864,512C864,503.333 867.167,495.833 873.5,489.5C879.833,483.167 887.333,480 896,480ZM783.5,152.5C795.5,152.5 806.833,154.833 817.5,159.5C828.167,164.167 837.5,170.5 845.5,178.5C853.5,186.5 859.833,195.833 864.5,206.5C869.167,217.167 871.5,228.5 871.5,240.5C871.5,252.5 869.167,263.833 864.5,274.5C859.833,285.167 853.5,294.5 845.5,302.5C837.5,310.5 828.167,316.833 817.5,321.5C806.833,326.167 795.5,328.5 783.5,328.5C771.5,328.5 760.167,326.167 749.5,321.5C738.833,316.833 729.5,310.5 721.5,302.5C713.5,294.5 707.167,285.167 702.5,274.5C697.833,263.833 695.5,252.5 695.5,240.5C695.5,228.5 697.833,217.167 702.5,206.5C707.167,195.833 713.5,186.5 721.5,178.5C729.5,170.5 738.833,164.167 749.5,159.5C760.167,154.833 771.5,152.5 783.5,152.5Z" fill="#FFFFFF" fill-opacity="1">
  </path>
</svg>